<svg width="229" height="145" viewBox="0 0 229 145" fill="none" xmlns="http://www.w3.org/2000/svg">
<path d="M26 116.5C19.3726 116.5 14 111.127 14 104.5V28C14 21.3726 19.3726 16 26 16C32.6274 16 38 21.3726 38 28V104.5C38 111.127 32.6274 116.5 26 116.5Z" fill="#fafafa"/>
<path d="M4.5 88.5C2.01472 88.5 0 86.4853 0 84V48.5C0 46.0147 2.01472 44 4.5 44C6.98528 44 9 46.0147 9 48.5V84C9 86.4853 6.98528 88.5 4.5 88.5Z" fill="#fafafa"/>
<path d="M203 116.5C209.627 116.5 215 111.127 215 104.5V28C215 21.3726 209.627 16 203 16C196.373 16 191 21.3726 191 28V104.5C191 111.127 196.373 116.5 203 116.5Z" fill="#fafafa"/>
<path d="M224.5 88.5C226.985 88.5 229 86.4853 229 84V48.5C229 46.0147 226.985 44 224.5 44C222.015 44 220 46.0147 220 48.5V84C220 86.4853 222.015 88.5 224.5 88.5Z" fill="#fafafa"/>
<path d="M58.5 0C50.4919 0 44 6.49187 44 14.5V130C44 138.008 50.4919 144.5 58.5 144.5C66.5081 144.5 73 138.008 73 130V49.5L104.253 80.7531C106.877 83.377 110.502 85 114.506 85C118.51 85 122.135 83.377 124.759 80.7531L156 49.5122V130C156 138.008 162.492 144.5 170.5 144.5C178.508 144.5 185 138.008 185 130V14.5C185 6.49187 178.508 0 170.5 0C166.282 0 162.485 1.80093 159.835 4.67579L124.759 39.753L114.506 50.0061L104.253 39.753L68.506 3.9939L68.5 4C65.8984 1.52152 62.3769 0 58.5 0Z" fill="#fafafa"/>
</svg>
